<svg width="256" height="256" viewBox="0 0 256 256" fill="none"
  xmlns="http://www.w3.org/2000/svg">

  <!-- Background -->
  <rect width="256" height="256" rx="48" fill="#0052FF"/>

  <!-- Grid cells -->
  <g fill="#FFFFFF" opacity="0.15">
    <rect x="48" y="48" width="48" height="48" rx="10"/>
    <rect x="104" y="48" width="48" height="48" rx="10"/>
    <rect x="160" y="48" width="48" height="48" rx="10"/>

    <rect x="48" y="104" width="48" height="48" rx="10"/>
    <rect x="104" y="104" width="48" height="48" rx="10"/>
    <rect x="160" y="104" width="48" height="48" rx="10"/>

    <rect x="48" y="160" width="48" height="48" rx="10"/>
    <rect x="104" y="160" width="48" height="48" rx="10"/>
    <rect x="160" y="160" width="48" height="48" rx="10"/>
  </g>

  <!-- Highlighted path -->
  <path
    d="M72 72 L128 72 L128 128 L184 128 L184 184"
    stroke="#22C55E"
    stroke-width="16"
    stroke-linecap="round"
    stroke-linejoin="round"
  />
</svg>
